STARTFONT 2.1
COMMENT Available in 12 and 24 point.
COMMENT @@@@@@@@@@@@@@@@@@@@@@@@
COMMENT @......................@
COMMENT @......................@
COMMENT @......................@
COMMENT @.@@@@@@@..............@
COMMENT @..@@...@...........@..@
COMMENT @..@@..............@@..@
COMMENT @..@@..............@@..@
COMMENT @..@@@@...........@@@@.@
COMMENT @..@@...@@@..@@@@..@@..@
COMMENT @..@@..@@.@@.@@.@@.@@..@
COMMENT @..@@..@@.@@.@@.@@.@@..@
COMMENT @..@@..@@.@@.@@.@@.@@..@
COMMENT @.@@@@..@@@..@@.@@..@@.@
COMMENT @......................@
COMMENT @......................@
COMMENT @......................@
COMMENT @......................@
COMMENT @......................@
COMMENT @......................@
COMMENT @@@@@@@@@@@@@@@@@@@@@@@@
FONT --Cory-Regular-R-Normal--12-120-72-72-P-69-FONTSPECIFIC-0
SIZE 12 72 72
FONTBOUNDINGBOX 10 12 0 -3
METRICSSET 2
STARTPROPERTIES 19
FONT_ASCENT 9
FONT_DESCENT 3
PIXEL_SIZE 12
RESOLUTION_X 72
RESOLUTION_Y 72
POINT_SIZE 120
FACE_NAME "Cory Regular 12"
FOUNDRY ""
FAMILY_NAME "Cory"
WEIGHT_NAME "Regular"
RELATIVE_WEIGHT 50
SLANT "R"
SPACING "P"
SETWIDTH_NAME "Normal"
RELATIVE_SETWIDTH 50
ADD_STYLE_NAME ""
AVERAGE_WIDTH 69
CHARSET_REGISTRY "FONTSPECIFIC"
CHARSET_ENCODING "0"
ENDPROPERTIES
CHARS 95
STARTCHAR char20
ENCODING 32
SWIDTH 250 0
DWIDTH 3 0
BBX 0 0 3 9
VVECTOR 5 9
SWIDTH1 0 -1000
DWIDTH1 0 -12
BITMAP 
ENDCHAR
STARTCHAR char21
ENCODING 33
SWIDTH 333 0
DWIDTH 4 0
BBX 3 9 0 0
VVECTOR 1 9
SWIDTH1 0 -1000
DWIDTH1 0 -12
BITMAP 
C0
C0
C0
C0
E0
E0
00
E0
E0
ENDCHAR
STARTCHAR char22
ENCODING 34
SWIDTH 667 0
DWIDTH 8 0
BBX 7 4 0 5
VVECTOR 3 9
SWIDTH1 0 -1000
DWIDTH1 0 -12
BITMAP 
EE
EE
22
22
ENDCHAR
STARTCHAR char23
ENCODING 35
SWIDTH 750 0
DWIDTH 9 0
BBX 9 11 0 -2
VVECTOR 5 9
SWIDTH1 0 -1000
DWIDTH1 0 -12
BITMAP 
2400
2400
FF00
2400
2400
FF00
2400
2400
0000
0000
0080
ENDCHAR
STARTCHAR char24
ENCODING 36
SWIDTH 667 0
DWIDTH 8 0
BBX 7 9 0 0
VVECTOR 3 9
SWIDTH1 0 -1000
DWIDTH1 0 -12
BITMAP 
10
FE
C2
C0
FE
0E
8E
FE
10
ENDCHAR
STARTCHAR char25
ENCODING 37
SWIDTH 750 0
DWIDTH 9 0
BBX 8 9 0 0
VVECTOR 4 9
SWIDTH1 0 -1000
DWIDTH1 0 -12
BITMAP 
E1
E1
01
01
FF
E0
E0
E7
E7
ENDCHAR
STARTCHAR char26
ENCODING 38
SWIDTH 750 0
DWIDTH 9 0
BBX 8 9 0 0
VVECTOR 4 9
SWIDTH1 0 -1000
DWIDTH1 0 -12
BITMAP 
78
60
62
FF
E2
E2
E2
E2
FE
ENDCHAR
STARTCHAR char27
ENCODING 39
SWIDTH 333 0
DWIDTH 4 0
BBX 3 3 0 6
VVECTOR 1 9
SWIDTH1 0 -1000
DWIDTH1 0 -12
BITMAP 
E0
E0
20
ENDCHAR
STARTCHAR char28
ENCODING 40
SWIDTH 417 0
DWIDTH 5 0
BBX 4 11 0 -2
VVECTOR 2 9
SWIDTH1 0 -1000
DWIDTH1 0 -12
BITMAP 
70
C0
C0
C0
E0
E0
E0
E0
E0
E0
70
ENDCHAR
STARTCHAR char29
ENCODING 41
SWIDTH 417 0
DWIDTH 5 0
BBX 4 11 0 -2
VVECTOR 2 9
SWIDTH1 0 -1000
DWIDTH1 0 -12
BITMAP 
E0
30
30
30
70
70
70
70
70
70
E0
ENDCHAR
STARTCHAR char2A
ENCODING 42
SWIDTH 667 0
DWIDTH 8 0
BBX 7 5 0 4
VVECTOR 3 9
SWIDTH1 0 -1000
DWIDTH1 0 -12
BITMAP 
D6
D6
38
D6
D6
ENDCHAR
STARTCHAR char2B
ENCODING 43
SWIDTH 667 0
DWIDTH 8 0
BBX 7 7 0 0
VVECTOR 3 9
SWIDTH1 0 -1000
DWIDTH1 0 -12
BITMAP 
10
10
10
FE
10
10
10
ENDCHAR
STARTCHAR char2C
ENCODING 44
SWIDTH 333 0
DWIDTH 4 0
BBX 3 4 0 -2
VVECTOR 1 9
SWIDTH1 0 -1000
DWIDTH1 0 -12
BITMAP 
E0
E0
20
20
ENDCHAR
STARTCHAR char2D
ENCODING 45
SWIDTH 667 0
DWIDTH 8 0
BBX 7 1 0 3
VVECTOR 3 9
SWIDTH1 0 -1000
DWIDTH1 0 -12
BITMAP 
FE
ENDCHAR
STARTCHAR char2E
ENCODING 46
SWIDTH 333 0
DWIDTH 4 0
BBX 3 2 0 0
VVECTOR 1 9
SWIDTH1 0 -1000
DWIDTH1 0 -12
BITMAP 
E0
E0
ENDCHAR
STARTCHAR char2F
ENCODING 47
SWIDTH 750 0
DWIDTH 9 0
BBX 8 9 0 0
VVECTOR 4 9
SWIDTH1 0 -1000
DWIDTH1 0 -12
BITMAP 
01
01
01
01
FF
E0
E0
E0
E0
ENDCHAR
STARTCHAR char30
ENCODING 48
SWIDTH 667 0
DWIDTH 8 0
BBX 7 9 0 0
VVECTOR 3 9
SWIDTH1 0 -1000
DWIDTH1 0 -12
BITMAP 
FE
86
86
8E
8E
8E
8E
8E
FE
ENDCHAR
STARTCHAR char31
ENCODING 49
SWIDTH 333 0
DWIDTH 4 0
BBX 3 9 0 0
VVECTOR 1 9
SWIDTH1 0 -1000
DWIDTH1 0 -12
BITMAP 
60
60
60
E0
E0
E0
E0
E0
E0
ENDCHAR
STARTCHAR char32
ENCODING 50
SWIDTH 667 0
DWIDTH 8 0
BBX 7 9 0 0
VVECTOR 3 9
SWIDTH1 0 -1000
DWIDTH1 0 -12
BITMAP 
FE
86
86
06
06
FE
E0
E2
FE
ENDCHAR
STARTCHAR char33
ENCODING 51
SWIDTH 667 0
DWIDTH 8 0
BBX 7 9 0 0
VVECTOR 3 9
SWIDTH1 0 -1000
DWIDTH1 0 -12
BITMAP 
FC
8C
0E
7E
0E
0E
8E
8E
FE
ENDCHAR
STARTCHAR char34
ENCODING 52
SWIDTH 750 0
DWIDTH 9 0
BBX 8 9 0 0
VVECTOR 4 9
SWIDTH1 0 -1000
DWIDTH1 0 -12
BITMAP 
86
86
86
86
86
FF
0E
0E
0E
ENDCHAR
STARTCHAR char35
ENCODING 53
SWIDTH 667 0
DWIDTH 8 0
BBX 7 9 0 0
VVECTOR 3 9
SWIDTH1 0 -1000
DWIDTH1 0 -12
BITMAP 
FE
C0
C0
FE
0E
0E
8E
8E
FE
ENDCHAR
STARTCHAR char36
ENCODING 54
SWIDTH 667 0
DWIDTH 8 0
BBX 7 9 0 0
VVECTOR 3 9
SWIDTH1 0 -1000
DWIDTH1 0 -12
BITMAP 
FE
86
80
FE
8E
8E
8E
8E
FE
ENDCHAR
STARTCHAR char37
ENCODING 55
SWIDTH 667 0
DWIDTH 8 0
BBX 7 9 0 0
VVECTOR 3 9
SWIDTH1 0 -1000
DWIDTH1 0 -12
BITMAP 
FE
86
06
0E
0E
0E
0E
0E
0E
ENDCHAR
STARTCHAR char38
ENCODING 56
SWIDTH 667 0
DWIDTH 8 0
BBX 7 9 0 0
VVECTOR 3 9
SWIDTH1 0 -1000
DWIDTH1 0 -12
BITMAP 
7C
4C
4C
FE
8E
8E
8E
8E
FE
ENDCHAR
STARTCHAR char39
ENCODING 57
SWIDTH 667 0
DWIDTH 8 0
BBX 7 9 0 0
VVECTOR 3 9
SWIDTH1 0 -1000
DWIDTH1 0 -12
BITMAP 
FE
86
86
86
86
FE
0E
0E
0E
ENDCHAR
STARTCHAR char3A
ENCODING 58
SWIDTH 333 0
DWIDTH 4 0
BBX 3 7 0 0
VVECTOR 1 9
SWIDTH1 0 -1000
DWIDTH1 0 -12
BITMAP 
E0
E0
00
00
00
E0
E0
ENDCHAR
STARTCHAR char3B
ENCODING 59
SWIDTH 333 0
DWIDTH 4 0
BBX 3 9 0 -2
VVECTOR 1 9
SWIDTH1 0 -1000
DWIDTH1 0 -12
BITMAP 
E0
E0
00
00
00
E0
E0
20
20
ENDCHAR
STARTCHAR char3C
ENCODING 60
SWIDTH 583 0
DWIDTH 7 0
BBX 6 9 0 0
VVECTOR 3 9
SWIDTH1 0 -1000
DWIDTH1 0 -12
BITMAP 
0C
18
30
60
C0
60
30
18
0C
ENDCHAR
STARTCHAR char3D
ENCODING 61
SWIDTH 583 0
DWIDTH 7 0
BBX 6 4 0 2
VVECTOR 3 9
SWIDTH1 0 -1000
DWIDTH1 0 -12
BITMAP 
FC
00
00
FC
ENDCHAR
STARTCHAR char3E
ENCODING 62
SWIDTH 583 0
DWIDTH 7 0
BBX 6 9 0 0
VVECTOR 3 9
SWIDTH1 0 -1000
DWIDTH1 0 -12
BITMAP 
C0
60
30
18
0C
18
30
60
C0
ENDCHAR
STARTCHAR char3F
ENCODING 63
SWIDTH 667 0
DWIDTH 8 0
BBX 7 9 0 0
VVECTOR 3 9
SWIDTH1 0 -1000
DWIDTH1 0 -12
BITMAP 
FE
86
06
7E
70
70
00
70
70
ENDCHAR
STARTCHAR char40
ENCODING 64
SWIDTH 833 0
DWIDTH 10 0
BBX 9 9 0 0
VVECTOR 4 9
SWIDTH1 0 -1000
DWIDTH1 0 -12
BITMAP 
FF80
8080
9E80
9280
D280
D280
DF80
C000
FF80
ENDCHAR
STARTCHAR char41
ENCODING 65
SWIDTH 667 0
DWIDTH 8 0
BBX 7 9 0 0
VVECTOR 3 9
SWIDTH1 0 -1000
DWIDTH1 0 -12
BITMAP 
7C
64
64
FE
E2
E2
E2
E2
E2
ENDCHAR
STARTCHAR char42
ENCODING 66
SWIDTH 667 0
DWIDTH 8 0
BBX 7 9 0 0
VVECTOR 3 9
SWIDTH1 0 -1000
DWIDTH1 0 -12
BITMAP 
FC
C4
C4
FE
E2
E2
E2
E2
FE
ENDCHAR
STARTCHAR char43
ENCODING 67
SWIDTH 667 0
DWIDTH 8 0
BBX 7 9 0 0
VVECTOR 3 9
SWIDTH1 0 -1000
DWIDTH1 0 -12
BITMAP 
FE
C2
C0
E0
E0
E0
E0
E2
FE
ENDCHAR
STARTCHAR char44
ENCODING 68
SWIDTH 667 0
DWIDTH 8 0
BBX 7 9 0 0
VVECTOR 3 9
SWIDTH1 0 -1000
DWIDTH1 0 -12
BITMAP 
FE
C2
C2
E2
E2
E2
E2
E2
FE
ENDCHAR
STARTCHAR char45
ENCODING 69
SWIDTH 583 0
DWIDTH 7 0
BBX 6 9 0 0
VVECTOR 3 9
SWIDTH1 0 -1000
DWIDTH1 0 -12
BITMAP 
FC
C0
C0
FC
E0
E0
E0
E0
FC
ENDCHAR
STARTCHAR char46
ENCODING 70
SWIDTH 583 0
DWIDTH 7 0
BBX 6 9 0 0
VVECTOR 3 9
SWIDTH1 0 -1000
DWIDTH1 0 -12
BITMAP 
FC
C0
C0
FC
E0
E0
E0
E0
E0
ENDCHAR
STARTCHAR char47
ENCODING 71
SWIDTH 667 0
DWIDTH 8 0
BBX 7 9 0 0
VVECTOR 3 9
SWIDTH1 0 -1000
DWIDTH1 0 -12
BITMAP 
FE
C2
C0
EE
E2
E2
E2
E2
FE
ENDCHAR
STARTCHAR char48
ENCODING 72
SWIDTH 667 0
DWIDTH 8 0
BBX 7 9 0 0
VVECTOR 3 9
SWIDTH1 0 -1000
DWIDTH1 0 -12
BITMAP 
C2
C2
C2
FE
E2
E2
E2
E2
E2
ENDCHAR
STARTCHAR char49
ENCODING 73
SWIDTH 333 0
DWIDTH 4 0
BBX 3 9 0 0
VVECTOR 1 9
SWIDTH1 0 -1000
DWIDTH1 0 -12
BITMAP 
C0
C0
C0
E0
E0
E0
E0
E0
E0
ENDCHAR
STARTCHAR char4A
ENCODING 74
SWIDTH 667 0
DWIDTH 8 0
BBX 7 9 0 0
VVECTOR 3 9
SWIDTH1 0 -1000
DWIDTH1 0 -12
BITMAP 
0C
0C
0C
0E
0E
0E
8E
8E
FE
ENDCHAR
STARTCHAR char4B
ENCODING 75
SWIDTH 667 0
DWIDTH 8 0
BBX 7 9 0 0
VVECTOR 3 9
SWIDTH1 0 -1000
DWIDTH1 0 -12
BITMAP 
C4
C4
C4
FE
E2
E2
E2
E2
E2
ENDCHAR
STARTCHAR char4C
ENCODING 76
SWIDTH 583 0
DWIDTH 7 0
BBX 6 9 0 0
VVECTOR 3 9
SWIDTH1 0 -1000
DWIDTH1 0 -12
BITMAP 
C0
C0
C0
E0
E0
E0
E0
E0
FC
ENDCHAR
STARTCHAR char4D
ENCODING 77
SWIDTH 917 0
DWIDTH 11 0
BBX 10 9 0 0
VVECTOR 5 9
SWIDTH1 0 -1000
DWIDTH1 0 -12
BITMAP 
FBC0
C4C0
C4C0
E4C0
E4C0
E4C0
E4C0
E4C0
E440
ENDCHAR
STARTCHAR char4E
ENCODING 78
SWIDTH 667 0
DWIDTH 8 0
BBX 7 9 0 0
VVECTOR 3 9
SWIDTH1 0 -1000
DWIDTH1 0 -12
BITMAP 
FE
C2
C2
E2
E2
E2
E2
E2
E2
ENDCHAR
STARTCHAR char4F
ENCODING 79
SWIDTH 667 0
DWIDTH 8 0
BBX 7 9 0 0
VVECTOR 3 9
SWIDTH1 0 -1000
DWIDTH1 0 -12
BITMAP 
FE
8E
86
86
86
86
86
86
FE
ENDCHAR
STARTCHAR char50
ENCODING 80
SWIDTH 583 0
DWIDTH 7 0
BBX 6 9 0 0
VVECTOR 3 9
SWIDTH1 0 -1000
DWIDTH1 0 -12
BITMAP 
FC
C4
C4
FC
E0
E0
E0
E0
E0
ENDCHAR
STARTCHAR char51
ENCODING 81
SWIDTH 667 0
DWIDTH 8 0
BBX 7 9 0 0
VVECTOR 3 9
SWIDTH1 0 -1000
DWIDTH1 0 -12
BITMAP 
FE
86
86
86
86
86
9E
9E
FE
ENDCHAR
STARTCHAR char52
ENCODING 82
SWIDTH 667 0
DWIDTH 8 0
BBX 7 9 0 0
VVECTOR 3 9
SWIDTH1 0 -1000
DWIDTH1 0 -12
BITMAP 
FC
C4
C4
FE
E2
E2
E2
E2
E2
ENDCHAR
STARTCHAR char53
ENCODING 83
SWIDTH 667 0
DWIDTH 8 0
BBX 7 9 0 0
VVECTOR 3 9
SWIDTH1 0 -1000
DWIDTH1 0 -12
BITMAP 
FE
C2
C0
FE
0E
0E
0E
8E
FE
ENDCHAR
STARTCHAR char54
ENCODING 84
SWIDTH 667 0
DWIDTH 8 0
BBX 7 9 0 0
VVECTOR 3 9
SWIDTH1 0 -1000
DWIDTH1 0 -12
BITMAP 
FE
30
30
38
38
38
38
38
38
ENDCHAR
STARTCHAR char55
ENCODING 85
SWIDTH 667 0
DWIDTH 8 0
BBX 7 9 0 0
VVECTOR 3 9
SWIDTH1 0 -1000
DWIDTH1 0 -12
BITMAP 
C2
C2
C2
E2
E2
E2
E2
E2
FE
ENDCHAR
STARTCHAR char56
ENCODING 86
SWIDTH 667 0
DWIDTH 8 0
BBX 7 9 0 0
VVECTOR 3 9
SWIDTH1 0 -1000
DWIDTH1 0 -12
BITMAP 
E2
E2
E2
E2
E2
E6
64
64
7C
ENDCHAR
STARTCHAR char57
ENCODING 87
SWIDTH 917 0
DWIDTH 11 0
BBX 10 9 0 0
VVECTOR 5 9
SWIDTH1 0 -1000
DWIDTH1 0 -12
BITMAP 
C4C0
C4C0
C4C0
E4C0
E4C0
E4C0
E4C0
E4C0
FBC0
ENDCHAR
STARTCHAR char58
ENCODING 88
SWIDTH 667 0
DWIDTH 8 0
BBX 7 9 0 0
VVECTOR 3 9
SWIDTH1 0 -1000
DWIDTH1 0 -12
BITMAP 
C2
C2
C2
7C
E2
E2
E2
E2
E2
ENDCHAR
STARTCHAR char59
ENCODING 89
SWIDTH 667 0
DWIDTH 8 0
BBX 7 9 0 0
VVECTOR 3 9
SWIDTH1 0 -1000
DWIDTH1 0 -12
BITMAP 
82
82
82
FE
38
38
38
38
38
ENDCHAR
STARTCHAR char5A
ENCODING 90
SWIDTH 667 0
DWIDTH 8 0
BBX 7 9 0 0
VVECTOR 3 9
SWIDTH1 0 -1000
DWIDTH1 0 -12
BITMAP 
FE
86
06
FE
E0
E0
E0
E2
FE
ENDCHAR
STARTCHAR char5B
ENCODING 91
SWIDTH 333 0
DWIDTH 4 0
BBX 3 11 0 -2
VVECTOR 1 9
SWIDTH1 0 -1000
DWIDTH1 0 -12
BITMAP 
E0
80
80
80
80
80
80
80
80
80
E0
ENDCHAR
STARTCHAR char5C
ENCODING 92
SWIDTH 750 0
DWIDTH 9 0
BBX 8 9 0 0
VVECTOR 4 9
SWIDTH1 0 -1000
DWIDTH1 0 -12
BITMAP 
80
80
80
80
FF
07
07
07
07
ENDCHAR
STARTCHAR char5D
ENCODING 93
SWIDTH 333 0
DWIDTH 4 0
BBX 3 11 0 -2
VVECTOR 1 9
SWIDTH1 0 -1000
DWIDTH1 0 -12
BITMAP 
E0
20
20
20
20
20
20
20
20
20
E0
ENDCHAR
STARTCHAR char5E
ENCODING 94
SWIDTH 417 0
DWIDTH 5 0
BBX 4 3 0 6
VVECTOR 2 9
SWIDTH1 0 -1000
DWIDTH1 0 -12
BITMAP 
F0
90
90
ENDCHAR
STARTCHAR char5F
ENCODING 95
SWIDTH 667 0
DWIDTH 8 0
BBX 8 1 0 -2
VVECTOR 4 9
SWIDTH1 0 -1000
DWIDTH1 0 -12
BITMAP 
FF
ENDCHAR
STARTCHAR char60
ENCODING 96
SWIDTH 333 0
DWIDTH 4 0
BBX 3 3 0 6
VVECTOR 1 9
SWIDTH1 0 -1000
DWIDTH1 0 -12
BITMAP 
E0
E0
80
ENDCHAR
STARTCHAR char61
ENCODING 97
SWIDTH 583 0
DWIDTH 7 0
BBX 6 7 0 0
VVECTOR 3 9
SWIDTH1 0 -1000
DWIDTH1 0 -12
BITMAP 
F8
88
08
FC
CC
CC
FC
ENDCHAR
STARTCHAR char62
ENCODING 98
SWIDTH 583 0
DWIDTH 7 0
BBX 6 9 0 0
VVECTOR 3 9
SWIDTH1 0 -1000
DWIDTH1 0 -12
BITMAP 
C0
C0
FC
C4
C4
E4
E4
E4
FC
ENDCHAR
STARTCHAR char63
ENCODING 99
SWIDTH 583 0
DWIDTH 7 0
BBX 6 7 0 0
VVECTOR 3 9
SWIDTH1 0 -1000
DWIDTH1 0 -12
BITMAP 
FC
C4
C0
E0
E0
E4
FC
ENDCHAR
STARTCHAR char64
ENCODING 100
SWIDTH 583 0
DWIDTH 7 0
BBX 6 9 0 0
VVECTOR 3 9
SWIDTH1 0 -1000
DWIDTH1 0 -12
BITMAP 
0C
0C
FC
8C
8C
9C
9C
9C
FC
ENDCHAR
STARTCHAR char65
ENCODING 101
SWIDTH 583 0
DWIDTH 7 0
BBX 6 7 0 0
VVECTOR 3 9
SWIDTH1 0 -1000
DWIDTH1 0 -12
BITMAP 
FC
C4
C4
FC
E0
E4
FC
ENDCHAR
STARTCHAR char66
ENCODING 102
SWIDTH 417 0
DWIDTH 5 0
BBX 4 9 0 0
VVECTOR 2 9
SWIDTH1 0 -1000
DWIDTH1 0 -12
BITMAP 
70
40
F0
60
60
70
70
70
70
ENDCHAR
STARTCHAR char67
ENCODING 103
SWIDTH 583 0
DWIDTH 7 0
BBX 6 10 0 -3
VVECTOR 3 9
SWIDTH1 0 -1000
DWIDTH1 0 -12
BITMAP 
FC
C4
C4
E4
E4
E4
FC
04
04
FC
ENDCHAR
STARTCHAR char68
ENCODING 104
SWIDTH 583 0
DWIDTH 7 0
BBX 6 9 0 0
VVECTOR 3 9
SWIDTH1 0 -1000
DWIDTH1 0 -12
BITMAP 
C0
C0
FC
C4
C4
E4
E4
E4
E4
ENDCHAR
STARTCHAR char69
ENCODING 105
SWIDTH 250 0
DWIDTH 3 0
BBX 2 9 0 0
VVECTOR 1 9
SWIDTH1 0 -1000
DWIDTH1 0 -12
BITMAP 
C0
C0
00
80
80
C0
C0
C0
C0
ENDCHAR
STARTCHAR char6A
ENCODING 106
SWIDTH 250 0
DWIDTH 3 0
BBX 2 12 0 -3
VVECTOR 1 9
SWIDTH1 0 -1000
DWIDTH1 0 -12
BITMAP 
C0
C0
00
80
80
C0
C0
C0
C0
40
40
C0
ENDCHAR
STARTCHAR char6B
ENCODING 107
SWIDTH 583 0
DWIDTH 7 0
BBX 6 9 0 0
VVECTOR 3 9
SWIDTH1 0 -1000
DWIDTH1 0 -12
BITMAP 
C0
C0
C8
C8
C8
FC
E4
E4
E4
ENDCHAR
STARTCHAR char6C
ENCODING 108
SWIDTH 333 0
DWIDTH 4 0
BBX 3 9 0 0
VVECTOR 1 9
SWIDTH1 0 -1000
DWIDTH1 0 -12
BITMAP 
C0
C0
C0
C0
C0
E0
E0
E0
E0
ENDCHAR
STARTCHAR char6D
ENCODING 109
SWIDTH 833 0
DWIDTH 10 0
BBX 9 7 0 0
VVECTOR 4 9
SWIDTH1 0 -1000
DWIDTH1 0 -12
BITMAP 
FF80
CC80
CC80
EE80
EE80
EE80
EE80
ENDCHAR
STARTCHAR char6E
ENCODING 110
SWIDTH 583 0
DWIDTH 7 0
BBX 6 7 0 0
VVECTOR 3 9
SWIDTH1 0 -1000
DWIDTH1 0 -12
BITMAP 
FC
C4
C4
E4
E4
E4
E4
ENDCHAR
STARTCHAR char6F
ENCODING 111
SWIDTH 583 0
DWIDTH 7 0
BBX 6 7 0 0
VVECTOR 3 9
SWIDTH1 0 -1000
DWIDTH1 0 -12
BITMAP 
FC
C4
C4
E4
E4
E4
FC
ENDCHAR
STARTCHAR char70
ENCODING 112
SWIDTH 583 0
DWIDTH 7 0
BBX 6 10 0 -3
VVECTOR 3 9
SWIDTH1 0 -1000
DWIDTH1 0 -12
BITMAP 
FC
C4
C4
E4
E4
E4
FC
80
80
80
ENDCHAR
STARTCHAR char71
ENCODING 113
SWIDTH 583 0
DWIDTH 7 0
BBX 6 10 0 -3
VVECTOR 3 9
SWIDTH1 0 -1000
DWIDTH1 0 -12
BITMAP 
FC
C4
C4
E4
E4
E4
FC
04
04
04
ENDCHAR
STARTCHAR char72
ENCODING 114
SWIDTH 500 0
DWIDTH 6 0
BBX 5 7 0 0
VVECTOR 2 9
SWIDTH1 0 -1000
DWIDTH1 0 -12
BITMAP 
F8
C0
C0
E0
E0
E0
E0
ENDCHAR
STARTCHAR char73
ENCODING 115
SWIDTH 583 0
DWIDTH 7 0
BBX 6 7 0 0
VVECTOR 3 9
SWIDTH1 0 -1000
DWIDTH1 0 -12
BITMAP 
FC
C4
C0
FC
1C
9C
FC
ENDCHAR
STARTCHAR char74
ENCODING 116
SWIDTH 417 0
DWIDTH 5 0
BBX 4 9 0 0
VVECTOR 2 9
SWIDTH1 0 -1000
DWIDTH1 0 -12
BITMAP 
40
40
F0
60
60
70
70
70
70
ENDCHAR
STARTCHAR char75
ENCODING 117
SWIDTH 583 0
DWIDTH 7 0
BBX 6 7 0 0
VVECTOR 3 9
SWIDTH1 0 -1000
DWIDTH1 0 -12
BITMAP 
C4
C4
C4
E4
E4
E4
FC
ENDCHAR
STARTCHAR char76
ENCODING 118
SWIDTH 583 0
DWIDTH 7 0
BBX 6 7 0 0
VVECTOR 3 9
SWIDTH1 0 -1000
DWIDTH1 0 -12
BITMAP 
E4
E4
E4
E4
6C
68
78
ENDCHAR
STARTCHAR char77
ENCODING 119
SWIDTH 833 0
DWIDTH 10 0
BBX 9 7 0 0
VVECTOR 4 9
SWIDTH1 0 -1000
DWIDTH1 0 -12
BITMAP 
CC80
CC80
CC80
EE80
EE80
EE80
F780
ENDCHAR
STARTCHAR char78
ENCODING 120
SWIDTH 583 0
DWIDTH 7 0
BBX 6 7 0 0
VVECTOR 3 9
SWIDTH1 0 -1000
DWIDTH1 0 -12
BITMAP 
C4
C4
C4
78
E4
E4
E4
ENDCHAR
STARTCHAR char79
ENCODING 121
SWIDTH 583 0
DWIDTH 7 0
BBX 6 10 0 -3
VVECTOR 3 9
SWIDTH1 0 -1000
DWIDTH1 0 -12
BITMAP 
E4
E4
E4
E4
C4
C4
FC
04
04
FC
ENDCHAR
STARTCHAR char7A
ENCODING 122
SWIDTH 583 0
DWIDTH 7 0
BBX 6 7 0 0
VVECTOR 3 9
SWIDTH1 0 -1000
DWIDTH1 0 -12
BITMAP 
FC
8C
0C
FC
E0
E4
FC
ENDCHAR
STARTCHAR char7B
ENCODING 123
SWIDTH 417 0
DWIDTH 5 0
BBX 4 11 0 -2
VVECTOR 2 9
SWIDTH1 0 -1000
DWIDTH1 0 -12
BITMAP 
70
60
60
60
60
80
60
60
60
60
70
ENDCHAR
STARTCHAR char7C
ENCODING 124
SWIDTH 167 0
DWIDTH 2 0
BBX 1 11 0 -2
VVECTOR 0 9
SWIDTH1 0 -1000
DWIDTH1 0 -12
BITMAP 
80
80
80
80
80
80
80
80
80
80
80
ENDCHAR
STARTCHAR char7D
ENCODING 125
SWIDTH 417 0
DWIDTH 5 0
BBX 4 11 0 -2
VVECTOR 2 9
SWIDTH1 0 -1000
DWIDTH1 0 -12
BITMAP 
E0
60
60
60
60
10
60
60
60
60
E0
ENDCHAR
STARTCHAR char7E
ENCODING 126
SWIDTH 583 0
DWIDTH 7 0
BBX 6 2 0 7
VVECTOR 3 9
SWIDTH1 0 -1000
DWIDTH1 0 -12
BITMAP 
F4
BC
ENDCHAR
ENDFONT
